<?xml version="1.0" encoding="utf-8"?>
<!-- Generator: Adobe Illustrator 24.3.0, SVG Export Plug-In . SVG Version: 6.00 Build 0)  -->
<svg version="1.1" id="Layer_1" xmlns="http://www.w3.org/2000/svg" xmlns:xlink="http://www.w3.org/1999/xlink" x="0px" y="0px"
	 viewBox="0 0 500 400" style="enable-background:new 0 0 500 400;" xml:space="preserve">
<style type="text/css">
	.st0{fill:#464342;}
</style>
<path class="st0" d="M374.13,74.47C333.48,36.89,272.53,30,272.53,30c0.23,0.77,0.46,1.54,0.68,2.33c0.6,2.28,1.12,4.56,1.51,6.86
	c0.82,4.59,1.25,9.23,1.29,13.87c0.1,9.27-1.4,18.54-4.59,27.14c-0.74,2.17-1.71,4.25-2.63,6.33c-1.04,2.03-2.03,4.08-3.24,6.01
	c-1.1,1.98-2.45,3.82-3.7,5.69c-1.39,1.78-2.68,3.63-4.2,5.3c-2.89,3.45-6.12,6.56-9.47,9.5c-3.36,2.94-6.94,5.57-10.58,8.08
	c3.4-2.84,6.7-5.78,9.73-8.98c3.02-3.2,5.89-6.53,8.37-10.12c1.32-1.74,2.39-3.65,3.56-5.47c1.03-1.91,2.15-3.77,3.02-5.75
	c0.97-1.93,1.73-3.95,2.53-5.94c0.68-2.04,1.4-4.06,1.9-6.14c2.22-8.26,2.78-16.86,1.9-25.26c-0.43-4.2-1.21-8.35-2.33-12.4
	c-0.54-2.03-1.2-4.01-1.91-5.96c-0.7-1.89-1.56-3.97-2.35-5.48l-0.19-0.36l-4.25-7.24c-2.37-4.04-5.82-7.34-9.95-9.54l-14.05-7.45
	l-5.87,31.49l-9.49-3.23c-3.31-1.13-6.82-1.55-10.3-1.26l-16.33,1.4l5.25,22.23l15.44-6.17l-41.62,33.82
	c-4.94,4.02-7.92,9.97-8.16,16.33l-0.23,6.04l-64.94,75.76c-2.68,3.13-1.51,7.97,2.31,9.52l8.91,3.63l7.41-18.52l-2.47,24.08
	l9.5,9.5c4.12,4.12,9.95,6.07,15.73,5.24l12.44-1.78l19.06-29.1l-2.55,7.64l9.26,9.73l-12.74-2.55l-9.49,15.75l4.92,8.69
	c3.14,5.54,8.9,9.09,15.26,9.39l16.07,0.75l2.52-1.27c1.01-0.82,2.1-1.8,3.11-2.75c1.13-1.06,2.23-2.17,3.31-3.3
	c2.15-2.27,4.2-4.65,6.12-7.13c3.84-4.97,7.2-10.34,9.77-16.1c2.59-5.74,4.4-11.88,5.09-18.2c0.77-6.32,0.26-12.79-1.18-19.08
	c1.97,6.13,3.06,12.65,2.81,19.19c-0.15,6.55-1.48,13.09-3.68,19.3c-2.17,6.24-5.2,12.17-8.8,17.73c-1.8,2.78-10.9,13.6-11.66,14.65
	c-63.34,87.04,1.26,158.52,1.26,158.52c4.1-42.39,25.97-75.98,68.28-102.23c5.29-3.29,10.06-7.4,14.12-12.13
	c0.02-0.02,0.04-0.05,0.06-0.07c4.04-4.52,7.94-9.77,12.19-15.25c3.99-5.64,8.3-11.57,12.14-18.07c0.99-1.61,1.99-3.23,2.99-4.87
	c0.92-1.68,1.84-3.38,2.77-5.08c0.93-1.71,1.87-3.42,2.81-5.15c0.11-0.22,0.22-0.44,0.33-0.65c1.58-3.34,3.17-6.7,4.77-10.09
	l2.27-5.56c1.61-3.69,2.88-7.51,4.18-11.33c1.43-3.79,2.28-7.73,3.45-11.59c0.95-3.9,1.85-7.82,2.58-11.73
	c1.39-7.84,2.31-15.66,2.58-23.27c0.57-15.22-1.07-29.56-3.92-41.5c-2.75-12-6.56-21.62-9.59-28.16
	c-3.05-6.55-5.34-10.01-5.34-10.01s2.53,3.29,6.05,9.65c3.5,6.35,8.02,15.78,11.67,27.77c3.75,11.94,6.48,26.49,6.99,42.27
	c0.27,7.89-0.11,16.07-0.99,24.35c-0.48,4.13-1.13,8.28-1.84,12.44c-0.93,4.1-1.55,8.32-2.76,12.38c-1.09,4.1-2.14,8.21-3.55,12.19
	l-1.98,6.01c-0.12,0.33-0.24,0.67-0.36,1c-0.67,1.71-1.35,3.41-2.01,5.1c-1.31,3.08-3.45,8.09-4.76,11.17
	c-0.85,1.86-1.7,3.72-2.54,5.55c-0.93,1.79-1.86,3.57-2.78,5.33c-3.57,7.13-7.64,13.65-11.43,19.89c-0.39,0.58-0.77,1.15-1.15,1.73
	c0,0,58.72-26.11,78.89-56.11C412.58,176.08,412.05,109.53,374.13,74.47z M192.69,104.14l-15.51,5.09l-12.74,13.2l8.57-17.6v-6.71
	l2.08,6.48l30.1-16.44L192.69,104.14z"/>
</svg>
