<?xml version="1.0" encoding="utf-8"?>
<!-- Generator: Adobe Illustrator 24.3.0, SVG Export Plug-In . SVG Version: 6.00 Build 0)  -->
<svg version="1.1" id="Layer_1" xmlns="http://www.w3.org/2000/svg" xmlns:xlink="http://www.w3.org/1999/xlink" x="0px" y="0px"
	 viewBox="0 0 45 45" style="enable-background:new 0 0 45 45;" xml:space="preserve">
<style type="text/css">
	.st0{fill:#F28B0C;}
	.st1{fill:#0D080B;}
	.st2{fill:#FFFFFF;}
</style>
<g>
	<g>
		<path class="st0" d="M2.98,9.28c0,0,0.35,13.96,4.8,21.92c5.11,9.15,15.01,13.39,15.01,13.39V0.41L2.98,9.28z"/>
		<path class="st1" d="M42.59,9.28c0,0-0.35,13.96-4.8,21.92c-5.11,9.15-15.01,13.39-15.01,13.39V0.41L42.59,9.28z"/>
	</g>
	<path class="st1" d="M9.11,30.46c4.08,7.31,11.52,11.38,13.68,12.45V2.08L4.55,10.25C4.73,13.54,5.57,24.12,9.11,30.46z"/>
	<path class="st0" d="M22.79,42.91c2.16-1.06,9.59-5.12,13.68-12.45c3.53-6.33,4.38-16.92,4.56-20.21L22.79,2.08l0,0L22.79,42.91
		C22.79,42.91,22.79,42.91,22.79,42.91z"/>
	<path class="st0" d="M9.9,30.01c3.72,6.67,10.36,10.57,12.88,11.87V3.08L5.5,10.82C5.74,14.52,6.66,24.19,9.9,30.01z"/>
	<path class="st1" d="M22.79,41.88c2.51-1.29,9.15-5.18,12.88-11.87c3.25-5.82,4.17-15.49,4.41-19.19L22.79,3.08l0,0L22.79,41.88
		C22.79,41.88,22.79,41.88,22.79,41.88z"/>
</g>
<g>
	<path class="st2" d="M34.83,16.7l-1.38,0.15c0,0-0.69-0.41-1.37-0.47c-0.68-0.06-3.47,0.97-4.7,1.74c0,0,1.86,1.91,0.58,3.27
		c0,0,0.27-1.73-1.75-3.36c-2.02-1.63-4.08-1.07-5.42-0.44c-1.34,0.62-12.33,5.99-12.33,5.99s3.02,1.71,4.58,0.97
		c4.06-1.94,6.91-3.37,6.91-3.37s0.79-0.25,1.57,0.04l-8.05,4.17c0,0,2.31,1.21,3.56,1.03l6.46-3.54c0,0,0.27,0.44,0.2,0.75
		l-6.01,3.31c0,0,2.35,1.42,4.62,0.65c0,0,1.84-0.67,2.87-1.51c0,0-1.78,1.88-3.42,2.25c0,0,2.36,1.25,5.11-1.4
		c2.75-2.65,3.2-4.8,4.77-6.27c1.57-1.48,3.77-2.63,4.89-2.77C36.53,17.88,35.77,17.01,34.83,16.7z M32.24,17.6
		c-0.22,0-0.43-0.12-0.43-0.12s0.48-0.21,0.63-0.22c0.15-0.02,0.44,0.17,0.44,0.17S32.46,17.6,32.24,17.6z"/>
</g>
</svg>
