<?xml version="1.0" encoding="utf-8"?>
<!-- Generator: Adobe Illustrator 24.3.0, SVG Export Plug-In . SVG Version: 6.00 Build 0)  -->
<svg version="1.1" id="Layer_1" xmlns="http://www.w3.org/2000/svg" xmlns:xlink="http://www.w3.org/1999/xlink" x="0px" y="0px"
	 viewBox="0 0 500 400" style="enable-background:new 0 0 500 400;" xml:space="preserve">
<style type="text/css">
	.st0{fill:#0D080B;}
</style>
<path class="st0" d="M447.77,294.48c0,0,7.67-9.21,32.23,3.07c-1.53-8.44-28.39-32.99-68.29-28.39
	c11.51-5.37,18.68-18.42,18.68-18.42c-23.93,17.14-59.32-1.52-83.62-19c-19.15-24.61-40.35-36.03-52.62-36.03
	c-19.33,0-52.33-4.24-84.86-18.86c-32.53-14.61-42.14-27.11-42.14-27.11s2.5,0,8.33-2.71c-10.83-0.83-20.62-8.95-20.62-8.95
	s0,0,3.33-1.46c-5-2.5-13.54-8.33-14.37-13.95c3.87,2.72,8.22,1.63,10.57,0.69c0.67-0.27,0.71-1.2,0.06-1.53
	c-2.43-1.21-7.16-4.27-11.55-11.13c-6.46-11.25-11.47-14.07-11.47-14.07c-11.55-36.71-23.84-34.77-32.68-39.32
	c-8.83-4.54-16.66-12.75-22.59-21.83c0.13-2.9-1.39-5.8-2.9-6.69c-1.51-0.88-5.93-1.77-7.28,2.78c-4,4.69-4.63,9.28-3.98,13.35
	l-1.54,2.53l2.03-0.29c1.07,3.9,3.05,7.17,3.83,9.33c-1.22-1.17-2.61-1.94-3.95-2.48l0.74-1.67l-3.08,0.92
	c-1.76-0.41-3.07-0.41-3.07-0.41c-6.88,1.76-6.72,9.93,0,20.33c10.25,16.17,8.98,27.58,8.98,27.58s-3.96,12.26-8.77,18.8
	c-7.12,5.77-13.66,17.12-12.51,27.9c4.04-11.35,12.76-16.67,12.76-16.67c-11.24,14.66-5.84,40.87-5.6,42
	c0.01-0.54,0.47-3.83,4.6-23.03c1.5,33.46,24.47,70.42,30.82,95.73c6.35,25.31,7.22,90.13-4.2,92.98
	c-18.02-3.39-23.17,5.41-24.54,12.19c-0.73,3.62,2.08,6.98,5.77,6.98l-0.02,0.28c-0.21,3.38,2.47,6.23,5.86,6.23h27.2
	c0,0.15,0,0.3,0,0.45c0.07,4.03,3.46,7.31,7.49,7.31h6.63c1.39,0,2.71-0.64,3.57-1.73l1.72-2.17l0.67,1.23
	c0.87,1.6,2.66,2.47,4.46,2.16l6.14-1.04c0,0,18.28-6.61,15.02-18.03c-5.71-13.05-6.53-42.43-3.21-75.43
	c46.97,9.43,84.25-8.4,84.25-8.4s6.67,10.39,23.81,32.42c17.13,22.03-17.13,37.12-17.13,37.12c-10.51-2.15-15.72,1.01-18.3,4.49
	c-2.2,2.97-1.27,7.2,1.98,8.97l3.51,5.39c1.12,1.73,3.04,2.77,5.1,2.77h21.85c3.4,0,6.45-1.99,7.91-5.07
	c6.24-13.14,19.8-28.23,26.73-35.48c2.54-2.65,3.53-6.39,2.65-9.96c-1.84-7.45-4.34-21.47-2.29-37.14
	c14.05,16.38,41.02,37.06,63.12,32.24c16.79,11.49,40.32,10.13,40.32,10.13s16.91,17.46,16.08,26.89
	c-10.3-2.45-12.14,7.33-12.08,14.89c0.03,4.49,3.67,8.12,8.16,8.12h1.37c2.18,0,4.12-1.4,4.81-3.47l0.23-0.69l0.47,1.43
	c0.54,1.63,2.07,2.73,3.79,2.73h7.72c1.42,0,2.64-0.99,2.93-2.38l0.43-2.02l0.57,1.6c0.59,1.67,2.2,2.76,3.97,2.71l4.56-0.15
	c0.46-0.02,0.88-0.3,1.05-0.73c1.92-4.92,1.55-10.44-1.02-15.06l-17.05-30.69c-1.33-2.4-3.22-4.42-5.51-5.93
	c-5.27-3.48-16.05-11.29-28.08-23.99c-0.96-2.94-1.97-5.77-3.01-8.56c20.03,14.56,52.91,37.42,71.25,44.55
	c-2.3-1.53-18.42-19.95-18.42-19.95s16.88,9.21,42.97,3.07C457.75,306.75,447.77,294.48,447.77,294.48z M70.01,60.65
	c0,0-5.4-0.87-8.07-2.15l0.36-2.17l-2.49,0.57c-1.05-0.87-2.01-1.82-2.11-2.52c1.69-0.33,6.81,1.46,9.49,3.48
	c-0.64-3.07-4.44-11.51-4.44-14.44c2.17,0.53,3.69,1.87,4.79,3.33l-1.36,3.21l2.79-0.92C68.98,49.05,71.19,55.85,70.01,60.65z
	 M109.67,350.2c-9.21-0.22-11.58,3.57-12.15,6.12c-0.11,1.37-0.13,2.23-0.13,2.23s-0.15-0.96,0.13-2.23
	c0.38-4.79,1.9-16.14,7.96-21.73c7.79-7.19,4.19-54.52,4.19-54.52l2.79,30.81l2.3-23.32c0,0,5.09,38.04,5.09,44.03
	C119.86,337.58,122.55,349.93,109.67,350.2z"/>
</svg>
