<?xml version="1.0" encoding="utf-8"?>
<!-- Generator: Adobe Illustrator 24.3.0, SVG Export Plug-In . SVG Version: 6.00 Build 0)  -->
<svg version="1.1" id="objects" xmlns="http://www.w3.org/2000/svg" xmlns:xlink="http://www.w3.org/1999/xlink" x="0px" y="0px"
	 viewBox="0 0 500 400" style="enable-background:new 0 0 500 400;" xml:space="preserve">
<style type="text/css">
	.st0{fill:#0D080B;}
	.st1{fill:#DF7D06;}
</style>
<path class="st0" d="M137.64,121.01c0,0,20.75-21.78,39.14-21.45c0,0-57.21,29.87-22.42,105.02c0,0-5.32-30.81,4.37-48.19
	c0,0-3.34,59.18,24.9,76.38c0,0-10.2-26.91-7.19-38.95c0,0,6.17,34.29,54.49,49.47c48.31,15.18,65.46,15.5,87.88,44.18
	c0,0,10.06-45.52-32.06-70.59s-41.78-24.73-46.8-32.42c0,0-23.4-6.02-28.08-31.42c-4.68-25.41,12.45-33.4,12.45-33.4
	s-18.82,36.74,15.61,57.49c0,0,1.24-12.29,27.76-9.39c26.51,2.9,58.03,13.28,63.28,11.82c0,0-7.31,8.37-2.87,16.83
	c0,0,0.76-10.26,8.78-13.6c8.02-3.34,10.38-8.44,10.38-8.44s4.76,5.21,2.87,12.51c0,0,7.81-9.84-6.23-26.46l-1,7.02
	c0,0-4.35-8.69-9.69-12.04l-1.67,6.02c0,0-5.71-7.52-8.97-9.33l-1.85,6.77c0,0-4.08-6.14-10.23-9.8l-0.67,6.35
	c0,0-13.22-7.26-31.85-2.79c0,0-7.93-17.93,14.13-23.95c0,0,10.56,1.67,19.94,15.43c0,0,1.1-3.84,0.43-8.19
	c0,0,0.94,5.89,8.37,10.28l-0.79-8.11c0,0,3.37,9.85,9.36,12.04l-0.03-8.86c0,0,1.49,8.4,8.49,11.81l0.79-9.31
	c0,0,4.95,8.97,10.44,12.31v-7.98c0,0,11.98,1.1,13.74,12.22c0,0,5.44-25.64,12.13-35.33c0,0-1.99-2.1-9.02,4.97
	c0,0-6.34-20.65-20.32-23.49c0,0,7.58,4.49,5.6,13.51c0,0-4.35-11.16-45.79-27.14c0,0-11.62-3.32-10.15-19.01c0,0,3.18-0.75,8.15,0
	c0,0-19.4-4.3-31.09-15.34s-41.68-28.98-68.64-30.71c0,0,24.52,9.3,33.21,17.32c8.69,8.02,14.38,13.71,14.38,13.71
	s-23.58-12.05-52.6-15.77c-41.38-5.31-54.15-35.08-55.36-41.03c0,0-5.44,14.55,4.35,28.37c12.04,16.99,28.6,24.35,45.45,26.64
	c7.93,1.08,22.21,1.67,29.08,7.14c0,0-22.39-4.32-40.78-3c-18.38,1.32-42.84-2.57-49.83-11.65c0,0,5.18,22.84,41.12,26.46
	c20.11,2.03,23.43-0.45,34.12,2.89c0,0-6.49,2.82-29.68,4.68C163.38,84.64,145.63,93.33,137.64,121.01z M254.79,96.03
	c4.58,1.7,3.5-2.73,12.74-3.88c9.25-1.15,9.23,5.53,9.23,5.53l4.18,2.32l-5.44,0.66C261.14,102.21,254.79,96.03,254.79,96.03z"/>
<path class="st1" d="M201.52,179.21c-23.19-1.86-29.68-4.68-29.68-4.68c10.69-3.34,14.01-0.86,34.12-2.89
	c35.94-3.63,41.12-26.46,41.12-26.46c-6.99,9.09-31.45,12.98-49.83,11.65c-18.39-1.32-40.78,3-40.78,3
	c6.86-5.47,21.15-6.06,29.08-7.14c16.85-2.3,33.42-9.66,45.45-26.64c9.78-13.82,4.35-28.37,4.35-28.37
	c-1.21,5.95-13.98,35.73-55.36,41.03c-29.02,3.72-52.6,15.77-52.6,15.77s5.68-5.68,14.38-13.71c8.69-8.02,33.21-17.32,33.21-17.32
	c-26.96,1.73-56.94,19.67-68.64,30.71C94.64,165.2,75.24,169.5,75.24,169.5c4.97-0.75,8.15,0,8.15,0
	c1.46,15.69-10.15,19.01-10.15,19.01c-41.45,15.98-45.79,27.14-45.79,27.14c-1.98-9.02,5.6-13.51,5.6-13.51
	c-13.98,2.84-20.32,23.49-20.32,23.49c-7.03-7.07-9.02-4.97-9.02-4.97c6.69,9.69,12.13,35.33,12.13,35.33
	c1.77-11.13,13.74-12.22,13.74-12.22v7.98c5.48-3.34,10.44-12.31,10.44-12.31l0.79,9.31c6.99-3.41,8.49-11.81,8.49-11.81l-0.01,8.86
	c5.99-2.18,9.36-12.04,9.36-12.04l-0.77,8.11c7.44-4.4,8.37-10.28,8.37-10.28c-0.67,4.35,0.43,8.19,0.43,8.19
	C76.04,226,86.6,224.33,86.6,224.33c22.06,6.02,14.13,23.95,14.13,23.95c-18.63-4.46-31.85,2.79-31.85,2.79l-0.67-6.35
	c-6.15,3.67-10.23,9.8-10.23,9.8l-1.85-6.77c-3.26,1.81-8.97,9.33-8.97,9.33l-1.67-6.02c-5.35,3.34-9.69,12.04-9.69,12.04l-1-7.02
	c-14.04,16.63-6.23,26.46-6.23,26.46c-1.89-7.29,2.87-12.51,2.87-12.51s2.36,5.1,10.38,8.44c8.02,3.34,8.78,13.6,8.78,13.6
	c4.44-8.46-2.87-16.83-2.87-16.83c5.24,1.46,36.76-8.93,63.28-11.82s27.76,9.39,27.76,9.39c34.44-20.76,15.61-57.49,15.61-57.49
	s17.13,7.99,12.45,33.4c-4.68,25.41-28.08,31.42-28.08,31.42c-5.01,7.69-4.68,7.35-46.8,32.42c-42.12,25.07-32.06,70.59-32.06,70.59
	c22.43-28.69,39.58-29,87.88-44.18c48.32-15.18,54.49-49.47,54.49-49.47c3.01,12.04-7.19,38.95-7.19,38.95
	c28.24-17.21,24.9-76.38,24.9-76.38c9.69,17.38,4.37,48.19,4.37,48.19c34.79-75.15-22.42-105.02-22.42-105.02
	c18.38-0.34,39.14,21.45,39.14,21.45C233.07,189.01,215.32,180.32,201.52,179.21z M103.19,196.36l-5.44-0.66l4.18-2.32
	c0,0-0.02-6.68,9.23-5.53s8.17,5.58,12.74,3.88C123.91,191.72,117.57,197.9,103.19,196.36z"/>
<path class="st1" d="M259.32,216.7c0,0,20.75-21.78,39.14-21.45c0,0-57.21,29.87-22.42,105.02c0,0-5.32-30.81,4.37-48.19
	c0,0-3.34,59.18,24.9,76.38c0,0-10.2-26.91-7.19-38.95c0,0,6.17,34.29,54.49,49.47c48.31,15.18,65.46,15.5,87.88,44.18
	c0,0,10.06-45.52-32.06-70.59s-41.78-24.73-46.8-32.42c0,0-23.4-6.02-28.08-31.42c-4.68-25.41,12.45-33.4,12.45-33.4
	s-18.82,36.74,15.61,57.49c0,0,1.24-12.29,27.76-9.39s58.03,13.28,63.28,11.82c0,0-7.31,8.37-2.87,16.83c0,0,0.76-10.26,8.78-13.6
	c8.02-3.34,10.38-8.44,10.38-8.44s4.76,5.21,2.87,12.51c0,0,7.81-9.84-6.23-26.46l-1,7.02c0,0-4.35-8.69-9.69-12.04l-1.67,6.02
	c0,0-5.71-7.52-8.97-9.33l-1.87,6.77c0,0-4.08-6.14-10.23-9.8l-0.67,6.35c0,0-13.22-7.26-31.85-2.79c0,0-7.93-17.93,14.13-23.95
	c0,0,10.56,1.67,19.94,15.43c0,0,1.1-3.84,0.43-8.19c0,0,0.94,5.89,8.37,10.28l-0.79-8.11c0,0,3.37,9.85,9.36,12.04l-0.01-8.86
	c0,0,1.49,8.4,8.49,11.81l0.79-9.31c0,0,4.95,8.97,10.44,12.31v-7.98c0,0,11.98,1.1,13.74,12.22c0,0,5.44-25.64,12.13-35.33
	c0,0-1.99-2.1-9.02,4.97c0,0-6.34-20.65-20.32-23.49c0,0,7.58,4.49,5.6,13.51c0,0-4.35-11.16-45.79-27.14
	c0,0-11.62-3.32-10.15-19.01c0,0,3.18-0.75,8.15,0c0,0-19.4-4.3-31.09-15.34c-11.69-11.04-41.68-28.98-68.64-30.71
	c0,0,24.52,9.3,33.21,17.32c8.69,8.02,14.38,13.71,14.38,13.71s-23.58-12.05-52.6-15.77c-41.38-5.31-54.15-35.08-55.36-41.03
	c0,0-5.44,14.55,4.35,28.37c12.04,16.99,28.6,24.35,45.45,26.64c7.93,1.08,22.21,1.67,29.08,7.14c0,0-22.39-4.32-40.78-3
	c-18.38,1.32-42.84-2.57-49.83-11.65c0,0,5.18,22.84,41.12,26.46c20.11,2.03,23.43-0.45,34.12,2.89c0,0-6.49,2.82-29.68,4.68
	C285.07,180.32,267.32,189.01,259.32,216.7z M376.47,191.72c4.58,1.7,3.5-2.73,12.74-3.88c9.25-1.15,9.23,5.53,9.23,5.53l4.18,2.32
	l-5.44,0.66C382.82,197.9,376.47,191.72,376.47,191.72z"/>
</svg>
